#!OML:ASF E:/inclinewalkrobotboard/Project1/Captureday1/Session1/subject1.ASF
:FULLY-SPECIFIED
:DEGREES
63
root 0 0 0 1.8459150660165973 -3.8932358222149888 2.177243434632807
lowerback 11.985998082146502 1.1642567056366127 -0.0980026038973888
upperback -4.4575182628985655 1.4634305209542282 -0.8552778415800101
thorax -11.566748842687986 0.6777425344123127 -1.133952340934742
lowerneck -6.23936481564031 1.7532359291779798 4.833804037315888
upperneck 18.175942196598562 3.2869250984065888 -8.489710093010649
head 6.697460870958188 1.2230342472955176 -3.2935691118463994
rclavicle -2.158185969602211E-15 -1.0950272791688566E-15
rhumerus 23.256954009782504 17.837867911763006 -48.4971449872785
rradius 74.89741570778293
rwrist 25.81792855432814
rhand -34.81883747756175 -58.10302653248789
rfingers 7.12502
rthumb -7.961946764443864 -88.01444693321362
lclavicle -1.115988232394073E-15 -8.344503116336784E-16
lhumerus 22.43620715588669 -14.54339034457161 45.76358335768819
lradius 71.34028093044762
lwrist -21.389248628591226
lhand -45.272542299761504 -69.0277790176836
lfingers 7.125020000000012
lthumb -18.04710598249389 -39.780600214479094
rfemur -24.53316350933195 -0.7828014896784752 18.607949030914835
rtibia 44.894905094288404
rfoot -33.04362244305142 -17.87703269353581
rtoes -23.03196386927215
lfemur -26.56504412338915 1.8255730457529182 -15.416634978912626
ltibia 44.971495382153265
lfoot -32.23367286247035 3.3332453557132364
ltoes -21.49924564091734
64
root 0 0 0 1.8452254955114302 -3.893794646475568 2.176784860998584
lowerback 11.985757590880835 1.1648471396506803 -0.09706069002730366
upperback -4.457655164120666 1.4643322489652755 -0.8555152473829147
thorax -11.566680791710976 0.6781273839939914 -1.1349587045884602
lowerneck -6.238631668081877 1.752802299172781 4.833530664578055
upperneck 18.17691033433643 3.286320105928489 -8.4891778574689
head 6.697698980436725 1.2227864051340949 -3.293387093278941
rclavicle -2.15040680758221E-15 -1.1019630784329855E-15
rhumerus 23.261054488003268 17.84416541429819 -48.50125069721833
rradius 74.90156495693262
rwrist 25.813328910545863
rhand -34.81906882803 -58.10358148202653
rfingers 7.12502
rthumb -7.961820969834882 -88.01416110976169
lclavicle -1.1154914902104153E-15 -8.411725623177157E-16
lhumerus 22.43491521141985 -14.544806608313872 45.765980755215374
lradius 71.33998347860529
lwrist -21.386343875550715
lhand -45.27235910695801 -69.02504279726838
lfingers 7.125020000000012
lthumb -18.046510671335817 -39.77682143740856
rfemur -24.520663627024362 -0.7834711277536726 18.60376333923444
rtibia 44.90624565781771
rfoot -33.028522045329375 -17.87516464341981
rtoes -23.043367035738264
lfemur -26.57372081362197 1.8259807485690098 -15.420062492181852
ltibia 44.957688669374086
lfoot -32.25408370932916 3.344309562209232
ltoes -21.49619076383117
65
root 0 0 0 1.8452035280413641 -3.8945211586080237 2.1769853114612667
lowerback 11.985753909620447 1.1653228001124367 -0.09684788911972086
upperback -4.457594905327486 1.464962470533905 -0.8558508450816006
thorax -11.56662812267993 0.6784270311518941 -1.1355078523159614
lowerneck -6.2388011770375 1.7526103706623706 4.83339527954356
upperneck 18.177027186695895 3.2859807798940945 -8.488816744067355
head 6.697771609678018 1.2226563340100771 -3.293279553099296
rclavicle -2.149227664530155E-15 -1.1022395257044217E-15
rhumerus 23.262572793491003 17.846251715053093 -48.502619883460866
rradius 74.90285221267172
rwrist 25.811833213650768
rhand -34.81905538923496 -58.103442612973325
rfingers 7.12502
rthumb -7.961831350853547 -88.01397835301546
lclavicle -1.1140454378433727E-15 -8.415773225989183E-16
lhumerus 22.434728618783872 -14.5444454285619 45.76587064881809
lradius 71.33971454948563
lwrist -21.386547376116425
lhand -45.27229515133634 -69.02504989472966
lfingers 7.125020000000012
lthumb -18.04645330514491 -39.77694075492525
rfemur -24.521679653943586 -0.7859889606724151 18.60015299948771
rtibia 44.92253140646392
rfoot -33.018514679254444 -17.874472557482598
rtoes -23.041329241403478
lfemur -26.572640103562527 1.8253574387651619 -15.425736790214764
ltibia 44.93874382421583
lfoot -32.27364031954141 3.355892044208944
ltoes -21.494020607120667
66
root 0 0 0 1.8451773192417211 -3.89432903900838 2.1782447200315196
lowerback 11.985720140189756 1.1652114111684582 -0.09790690010946623
upperback -4.45760286377442 1.4646473027793778 -0.8561561309564766
thorax -11.566600644769071 0.6783088224825904 -1.1351679024771653
lowerneck -6.238758710170936 1.7525776111260833 4.83325420497995
upperneck 18.177286556453478 3.285942920682638 -8.488679950121497
head 6.6978525668013935 1.222642157579903 -3.293232301605804
rclavicle -2.148710851611149E-15 -1.1016612351574829E-15
rhumerus 23.263068990520615 17.847095268766623 -48.50327445245591
rradius 74.90327102527412
rwrist 25.811127694156106
rhand -34.81900236234175 -58.1032130880514
rfingers 7.12502
rthumb -7.9617739423125915 -88.01365478134153
lclavicle -1.1138910204494392E-15 -8.404705394600763E-16
lhumerus 22.43449045377924 -14.544051497507882 45.76577802540311
lradius 71.33943368921746
lwrist -21.386726183770868
lhand -45.27231638480362 -69.02543620755499
lfingers 7.125020000000012
lthumb -18.0464710149012 -39.777196042313264
rfemur -24.529009987569232 -0.7907073730170864 18.593321149701787
rtibia 44.94866473752623
rfoot -33.004519487168565 -17.8734721044347
rtoes -23.03890816291187
lfemur -26.55783588886926 1.8217317357019196 -15.437839719748691
ltibia 44.90105844872672
lfoot -32.29552112301534 3.3686434465369803
ltoes -21.489821361714604
67
root 0 0 0 1.8454962544836073 -3.8929319411783303 2.1763428935391373
lowerback 11.98600711151657 1.1642585797400353 -0.09725023148037992
upperback -4.457586002182821 1.4635431212327201 -0.8550532192086572
thorax -11.56686173590124 0.6777710665847785 -1.134172952593119
lowerneck -6.2390690196745515 1.7533653633487438 4.8340975557595
upperneck 18.175772454785292 3.2871040792121713 -8.490041299860078
head 6.697348162921892 1.2231084356578816 -3.293689435856619
rclavicle -2.1592334562798124E-15 -1.0951125565622405E-15
rhumerus 23.255571294636994 17.83576634486346 -48.49561207635439
rradius 74.89629465026067
rwrist 25.819598476747466
rhand -34.81888824677601 -58.103509114184845
rfingers 7.12502
rthumb -7.961993005766448 -88.01501032662378
lclavicle -1.1174117861128838E-15 -8.346208773876156E-16
lhumerus 22.436643835797263 -14.543932128056435 45.76361386873154
lradius 71.34076409229239
lwrist -21.38908685934954
lhand -45.27263591960436 -69.02775120479899
lfingers 7.125020000000012
lthumb -18.047199179232756 -39.78060119590242
rfemur -24.52965248212583 -0.781665357531804 18.610260118796333
rtibia 44.89146284197896
rfoot -33.04480942720048 -17.876656118336022
rtoes -23.028843934525177
lfemur -26.5761796021771 1.8308783472021481 -15.405355317403163
ltibia 45.02300863273393
lfoot -32.20764677590396 3.313912101813176
ltoes -21.505550484816546
68
root 0 0 0 1.8449238120837435 -3.894192989765079 2.1757067950516795
lowerback 11.98597278934593 1.1651201062305967 -0.09591504019102703
upperback -4.457648361070858 1.4648508874747104 -0.8553836756326146
thorax -11.566840616805809 0.6783451047602373 -1.1355509538985054
lowerneck -6.238592899571231 1.7528104914569347 4.833731205153309
upperneck 18.176909964895252 3.286316759309056 -8.489369519443128
head 6.697688687481595 1.2227800229285957 -3.2934674177991914
rclavicle -2.1518945655409317E-15 -1.1020827117640406E-15
rhumerus 23.26076648148593 17.84347984245141 -48.50048051571984
rradius 74.90134833141536
rwrist 25.814125741894966
rhand -34.81918141441588 -58.10416100346638
rfingers 7.12502
rthumb -7.9619307827135195 -88.0148107518826
lclavicle -1.1171618513796144E-15 -8.413604560051717E-16
lhumerus 22.435259467684084 -14.545091812123692 45.765912311101815
lradius 71.34032454561526
lwrist -21.386341938094155
lhand -45.27247283777496 -69.0253161571369
lfingers 7.125020000000012
lthumb -18.04662434891138 -39.777122190827185
rfemur -24.516160022165728 -0.7823204389986782 18.606536508202183
rtibia 44.9027015740439
rfoot -33.031458774559646 -17.875207041240856
rtoes -23.04045037172617
lfemur -26.58984747846709 1.831336034727192 -15.408364827174127
ltibia 45.006147096465824
lfoot -32.231484462975445 3.3286541437258093
ltoes -21.499693684300123
69
root 0 0 0 1.8450645743355154 -3.8954838929797067 2.175836716108305
lowerback 11.98610568041936 1.1657992819963106 -0.09546969409613426
upperback -4.457523585225786 1.465778149885852 -0.8558016745539329
thorax -11.566797608722652 0.6787850160666968 -1.1363548833823551
lowerneck -6.2389985692749 1.7525095929461736 4.833486825134685
upperneck 18.17715464487959 3.285814652966881 -8.488855137254044
head 6.697846631603495 1.2225790695142726 -3.29331195310861
rclavicle -2.1509153669292594E-15 -1.1023681481878602E-15
rhumerus 23.26332589312441 17.846954852577007 -48.50265323793587
rradius 74.90349053386441
rwrist 25.811721721465528
rhand -34.8192087476729 -58.10402810228009
rfingers 7.12502
rthumb -7.961983925746923 -88.01461559683564
lclavicle -1.1157068142361203E-15 -8.417515240756225E-16
lhumerus 22.434973055210236 -14.544539987194558 45.76575315484885
lradius 71.3399262885589
lwrist -21.38664033257424
lhand -45.27240701924057 -69.02547048726944
lfingers 7.125020000000012
lthumb -18.046565591446708 -39.777384827712325
rfemur -24.516453633843163 -0.7845470630779698 18.603507306761117
rtibia 44.916784102582014
rfoot -33.023975206381905 -17.875022528004997
rtoes -23.03943295585212
lfemur -26.59142994325579 1.8300383263672435 -15.414825757023339
ltibia 44.97840238510878
lfoot -32.25671840156881 3.3454764802916603
ltoes -21.494903207574517
70
root 0 0 0 1.8452162883726895 -3.8956742496747463 2.177115806107304
lowerback 11.98613300322115 1.165813585045922 -0.09644711271808559
upperback -4.457484582398584 1.4656387401248434 -0.856171130877606
thorax -11.566748533203619 0.6787516809307919 -1.1361495927074206
lowerneck -6.239142562885594 1.752388583223295 4.833237876161568
upperneck 18.177506004598122 3.285646553761528 -8.488573766717428
head 6.697992569941285 1.222508804525929 -3.2932171083936606
rclavicle -2.1503442125366802E-15 -1.1017528009445691E-15
rhumerus 23.26465405327008 17.84894524608668 -48.5040191685424
rradius 74.90458732711312
rwrist 25.8102213950716
rhand -34.81917230501142 -58.103726494810736
rfingers 7.12502
rthumb -7.9619449348787725 -88.0141987165062
lclavicle -1.115309988569177E-15 -8.405802799521088E-16
lhumerus 22.43462530594342 -14.544005442233772 45.76565192736017
lradius 71.33952366531734
lwrist -21.386862962137876
lhand -45.27240798962242 -69.02587995923341
lfingers 7.125020000000012
lthumb -18.046563137185018 -39.77765603672471
rfemur -24.52325525225783 -0.7888004405704958 18.597274454411007
rtibia 44.939424247621254
rfoot -33.012698598360444 -17.87448278025026
rtoes -23.038606987665098
lfemur -26.577020336186827 1.8252163464630415 -15.42854049552858
ltibia 44.9284192765947
lfoot -32.28519094236515 3.3639626989710605
ltoes -21.488641546284235
